<svg width="1477" height="1477" viewBox="0 0 1477 1477" fill="none" xmlns="http://www.w3.org/2000/svg">
<mask id="path-1-outside-1_4002_2" maskUnits="userSpaceOnUse" x="283" y="313" width="914" height="1034" fill="black">
<rect fill="white" x="283" y="313" width="914" height="1034"/>
<path d="M1060 320C1131.8 320 1190 378.203 1190 450V1210C1190 1281.8 1131.8 1340 1060 1340H420C348.203 1340 290 1281.8 290 1210V450C290 378.203 348.203 320 420 320H1060ZM460 410C415.817 410 380 445.817 380 490V1170C380 1214.18 415.817 1250 460 1250H1020C1064.18 1250 1100 1214.18 1100 1170V490C1100 445.817 1064.18 410 1020 410H460Z"/>
</mask>
<path d="M1060 320C1131.8 320 1190 378.203 1190 450V1210C1190 1281.8 1131.8 1340 1060 1340H420C348.203 1340 290 1281.8 290 1210V450C290 378.203 348.203 320 420 320H1060ZM460 410C415.817 410 380 445.817 380 490V1170C380 1214.18 415.817 1250 460 1250H1020C1064.18 1250 1100 1214.18 1100 1170V490C1100 445.817 1064.18 410 1020 410H460Z" fill="#0A7B6C"/>
<path d="M1060 320V313V313V320ZM1190 450H1197V450H1190ZM1190 1210H1197V1210H1190ZM1060 1340V1347V1347V1340ZM420 1340V1347V1347V1340ZM290 1210H283V1210H290ZM290 450H283V450H290ZM420 320V313V313V320ZM460 410V403V410ZM380 1170H373V1170H380ZM1020 1250V1257V1250ZM1100 490H1107V490H1100ZM1060 320V327C1127.93 327 1183 382.069 1183 450H1190H1197C1197 374.337 1135.66 313 1060 313V320ZM1190 450H1183V1210H1190H1197V450H1190ZM1190 1210H1183C1183 1277.93 1127.93 1333 1060 1333V1340V1347C1135.66 1347 1197 1285.66 1197 1210H1190ZM1060 1340V1333H420V1340V1347H1060V1340ZM420 1340V1333C352.069 1333 297 1277.93 297 1210H290H283C283 1285.66 344.337 1347 420 1347V1340ZM290 1210H297V450H290H283V1210H290ZM290 450H297C297 382.069 352.069 327 420 327V320V313C344.337 313 283 374.337 283 450H290ZM420 320V327H1060V320V313H420V320ZM460 410V403C411.951 403 373 441.951 373 490H380H387C387 449.683 419.683 417 460 417V410ZM380 490H373V1170H380H387V490H380ZM380 1170H373C373 1218.05 411.951 1257 460 1257V1250V1243C419.683 1243 387 1210.32 387 1170H380ZM460 1250V1257H1020V1250V1243H460V1250ZM1020 1250V1257C1068.05 1257 1107 1218.05 1107 1170H1100H1093C1093 1210.32 1060.32 1243 1020 1243V1250ZM1100 1170H1107V490H1100H1093V1170H1100ZM1100 490H1107C1107 441.951 1068.05 403 1020 403V410V417C1060.32 417 1093 449.683 1093 490H1100ZM1020 410V403H460V410V417H1020V410Z" fill="#0B7B6D" mask="url(#path-1-outside-1_4002_2)"/>
<path d="M771 650C784.255 650 795 660.745 795 674V775H896C909.255 775 920 785.745 920 799V861C920 874.255 909.255 885 896 885H795V986C795 999.255 784.255 1010 771 1010H709C695.745 1010 685 999.255 685 986V885H584C570.745 885 560 874.255 560 861V799C560 785.745 570.745 775 584 775H685V674C685 660.745 695.745 650 709 650H771Z" fill="#0A7B6C"/>
<path d="M740 130C789.706 130 830 170.294 830 220C830 269.706 789.706 310 740 310C690.294 310 650 269.706 650 220C650 170.294 690.294 130 740 130ZM740 180C717.909 180 700 197.909 700 220C700 242.091 717.909 260 740 260C762.091 260 780 242.091 780 220C780 197.909 762.091 180 740 180Z" fill="#0C4F5C"/>
<rect x="505" y="235" width="470" height="180" rx="40" fill="#0C4F5C"/>
</svg>
