<svg width="1196" height="1442" viewBox="0 0 1196 1442" fill="none" xmlns="http://www.w3.org/2000/svg">
<path d="M549.811 523.572C563.827 522.416 629.135 522.129 641.171 524.659C649.195 526.386 656.565 530.322 662.466 536.021C679.218 552.44 674.828 581.58 674.665 603.573C674.369 631.621 674.461 659.672 674.961 687.719L758.557 687.641C768.03 687.63 793.551 687.049 801.677 688.61C809.793 690.157 817.337 693.865 823.513 699.346C831.526 706.467 836.171 715.854 836.355 726.628C836.794 749.956 836.151 773.397 836.824 796.724C837.284 812.22 835.099 822.222 824.911 834.068C808.956 852.643 785.548 848.599 763.283 848.913C734.006 849.324 704.524 847.895 675.002 849.006C674.073 877.117 675.053 905.853 674.644 934.016C674.124 969.465 682.535 996.55 641.794 1012.11C615.834 1013.01 589.17 1012.12 563.153 1012.61C557.746 1012.32 551.589 1012.51 546.323 1010.99C512.552 1001.24 515.926 972.368 515.948 946.74L516.103 889.211C516.137 876.915 516.559 862.147 515.289 850.096L515.099 848.373C473.757 847.222 426.959 852.062 385.494 847.482C366.069 843.806 353.695 826.439 353.778 807.127C353.882 783.592 353.925 760.178 353.775 736.654C353.779 723.755 354.033 711.157 363.97 701.496C374.558 691.203 385.989 687.351 400.613 687.631C411.41 687.837 422.369 687.638 433.078 687.666L516.112 687.672C517.202 661.564 511.477 562.153 519.771 545.067C525.511 533.242 538.063 527.628 549.811 523.572Z" fill="#0A7B6C"/>
<path d="M506.844 1305.22C450.372 1305.7 393.9 1305.88 337.427 1305.76C298.861 1305.78 241.813 1308.43 205.928 1300.83C175.9 1292.65 146.338 1269.14 131.985 1242.18C109.342 1199.67 116.762 1144.45 116.617 1097.12L116.463 896.015L116.25 534.313C116.084 498.474 116.231 462.633 116.69 426.796C116.902 392.965 114.19 367.4 122.019 334.44C132.014 292.356 178.325 248.584 221.763 246.621C246.027 245.524 334.816 240.754 354.722 246.594C353.345 253.774 353.87 274.846 353.886 283.219L354.056 352.151C339.832 352.793 320.857 353.728 306.106 352.772C273.673 350.672 237.556 375.699 234.117 409.258C231.746 432.379 233.409 464.885 233.456 489.417L233.464 649.726L233.451 917.209L233.443 1005.13C233.448 1020.63 232.979 1039.6 233.814 1054.79C233.954 1057.82 234.236 1060.85 234.659 1063.85C238.532 1080.66 240.253 1088.13 248.552 1103.88C264.846 1125.29 285.367 1142.25 312.742 1145.07C340.802 1147.96 371.847 1146.85 400.329 1146.86L554.36 1146.87H713.364C733.842 1146.86 781.27 1148.11 798.185 1144.58C852.177 1117.36 897.635 1075.83 929.607 1024.54C938.121 1010.96 944.655 996.56 952.893 982.572C953.209 980.671 953.485 979.83 954.005 977.977L954.648 979.052C956.037 976.966 955.383 970.552 955.363 967.4C971.421 957.031 970.492 941.425 983.14 937.409C985.468 943.122 981.874 950.973 984.977 957.637C986.795 938.181 984.794 912.886 986.386 892.233C987.509 876.391 991.011 860.81 996.778 846.008C1011.93 806.656 1040.58 766.4 1060.7 729.058C1062.64 725.467 1065.09 720.555 1068.11 717.949C1071.45 717.757 1069.94 717.32 1072.71 719.608L1073.1 1041.94L1073.51 1133.06C1073.59 1154.49 1074.59 1181.31 1070.82 1201.88C1066.44 1226.97 1054.59 1250.14 1036.82 1268.39C1006.67 1298.89 975.81 1305.5 934.814 1305.53H667.641C615.078 1305.56 559.25 1306.32 506.844 1305.22Z" fill="#0A7B6C"/>
<path d="M984.978 957.636C986.795 938.181 984.795 912.886 986.387 892.232C987.51 876.391 991.011 860.809 996.779 846.007C1011.93 806.656 1040.58 766.4 1060.7 729.058C1062.64 725.466 1065.09 720.554 1068.12 717.949C1071.45 717.756 1069.94 717.319 1072.71 719.607L1073.1 1041.94L1073.52 1133.06C1073.59 1154.49 1074.59 1181.31 1070.82 1201.88C1066.44 1226.96 1054.59 1250.14 1036.82 1268.39C1006.67 1298.89 975.811 1305.49 934.814 1305.53H667.642C615.079 1305.56 559.25 1306.32 506.845 1305.22C507.811 1301.82 509.733 1300.43 513.241 1299.38C534.784 1292.91 555.675 1285.9 576.767 1278.07C624.991 1259.91 671.306 1237.07 715.07 1209.87C722.838 1205.01 741.295 1194.05 746.593 1188.02L785.16 1187.85C841.918 1187.43 887.08 1168.37 926.362 1127.59C976.322 1075.72 985.489 1025.58 984.978 957.636Z" fill="#0A7B6C"/>
<path d="M955.364 967.399C971.422 957.031 972.111 941.006 984.759 936.989C985.535 943.982 985.535 945.536 984.978 957.636C985.489 1025.58 976.322 1075.72 926.362 1127.59C887.08 1168.37 841.919 1187.43 785.16 1187.85L746.593 1188.02C715.988 1186.68 675.114 1187.68 643.591 1187.69L449.715 1187.7H386.713C380.171 1187.69 371.932 1187.35 365.579 1187.68C311.226 1190.62 262.52 1161.76 242.688 1110.35C240.095 1103.62 237.44 1098.29 237.307 1090.74C239.558 1096.06 240.396 1100.21 244.865 1103.24L248.553 1103.88C264.847 1125.29 285.368 1142.25 312.743 1145.07C340.803 1147.96 371.848 1146.85 400.33 1146.86L554.361 1146.87H713.365C733.843 1146.86 781.271 1148.11 798.186 1144.58C852.178 1117.36 897.636 1075.83 929.608 1024.54C938.122 1010.96 944.655 996.559 952.894 982.572C953.21 980.67 953.486 979.83 954.006 977.976L954.649 979.051C956.038 976.965 955.384 970.552 955.364 967.399Z" fill="#024E5B"/>
<path d="M952.918 963.405C963.412 1042.48 900.884 1133.56 825.473 1144.79C818.827 1145.38 813.307 1145.42 793.709 1145.21C817.967 1136.52 897.636 1075.83 929.608 1024.54C938.122 1010.96 944.679 977.393 952.918 963.405Z" fill="white"/>
<path d="M234.66 1063.85C238.533 1080.66 240.254 1088.13 248.553 1103.88L244.865 1103.24C240.396 1100.22 239.558 1096.06 237.307 1090.74C236.825 1080.77 232.601 1076.47 234.66 1063.85Z" fill="#0C4F5C"/>
<path d="M483.636 210.72C484.556 171.463 486.26 138.086 517.342 108.506C539.73 87.4903 569.637 76.3689 600.318 77.6493C630.126 78.9162 658.229 91.8802 678.534 113.729C705.321 142.962 707.413 173.817 706.974 210.875C724.533 210.894 784.139 209.514 797.114 212.565C805.965 214.577 814.111 218.932 820.706 225.172C828.219 232.429 830.138 238.955 835.63 246.535C837.845 281.336 835.702 317.094 837.039 352.014C833.905 372.126 814.621 394.34 793.47 395.916C772.89 397.449 751.156 396.78 730.423 396.79L614.191 396.823L472.271 396.827C447.374 396.813 420.398 397.94 395.818 395.917C372.719 394.017 357.781 373.248 354.056 352.151L353.887 283.219C353.871 274.845 353.346 253.773 354.723 246.594C363.527 231.961 373.404 214.973 392.4 212.474C418.62 209.024 456.523 210.621 483.636 210.72ZM541.944 210.877C563.777 210.926 585.607 210.864 607.443 210.691C618.907 210.49 637.445 209.539 648.001 210.658C648.48 186.923 650.155 169.676 632.494 150.681C623.307 140.798 609.066 135.597 595.652 135.42C591.64 135.343 587.629 135.534 583.647 135.991C543.047 152.412 541.89 170.338 541.944 210.877Z" fill="#0C4F5C"/>
<path d="M835.63 246.535C848.258 243.886 881.935 244.883 896.757 244.905C912.815 244.929 936.968 244.154 952.566 245.079C959.784 245.566 966.96 246.526 974.055 247.954C989.286 250.817 1003.8 256.63 1016.8 265.068C1046.09 284.291 1064.37 312.714 1071.12 346.932C1074.07 361.888 1073.37 383.814 1073.37 399.611L1073.32 469.431C1073.78 552.824 1073.58 636.219 1072.71 719.608C1069.94 717.32 1071.45 717.757 1068.11 717.95C1065.09 720.555 1062.64 725.467 1060.7 729.058C1040.58 766.4 1011.93 806.656 996.779 846.008C991.011 860.81 987.51 876.391 986.387 892.233C984.794 912.887 986.795 938.181 984.978 957.637C983.982 950.974 986.309 942.702 983.982 936.99C977.769 945.536 971.421 957.032 955.364 967.4C955.384 970.553 956.037 976.966 954.649 979.052L954.006 981.085C954.343 936.197 954.455 888.201 954.333 843.312L954.353 586.653L954.343 467.913C954.384 448.417 955.098 426.134 953.72 406.801C952.954 396.015 945.145 381.808 937.489 373.961C916.5 352.447 899.769 352.832 872.227 352.715C860.497 352.6 848.768 352.368 837.039 352.015C835.701 317.095 837.845 281.337 835.63 246.535Z" fill="#0A7B6C"/>
</svg>
