<svg width="1024" height="1024" viewBox="0 0 1024 1024" fill="none" xmlns="http://www.w3.org/2000/svg">
<rect width="1024" height="1024" fill="#0A7B6C"/>
<mask id="path-1-outside-1_4007_2" maskUnits="userSpaceOnUse" x="235" y="218.917" width="555" height="625" fill="black">
<rect fill="white" x="235" y="218.917" width="555" height="625"/>
<path d="M642.661 235.917C714.458 235.917 772.661 294.12 772.661 365.917V695.999C772.661 767.796 714.458 825.999 642.661 825.999H382C310.203 825.999 252 767.796 252 695.999V365.917C252 294.12 310.203 235.917 382 235.917H642.661ZM384.066 287.983C339.884 287.983 304.066 323.801 304.066 367.983V693.933C304.066 738.115 339.884 773.933 384.066 773.933H640.595C684.778 773.933 720.595 738.115 720.595 693.933V367.983C720.595 323.801 684.778 287.983 640.595 287.983H384.066Z"/>
</mask>
<path d="M642.661 235.917C714.458 235.917 772.661 294.12 772.661 365.917V695.999C772.661 767.796 714.458 825.999 642.661 825.999H382C310.203 825.999 252 767.796 252 695.999V365.917C252 294.12 310.203 235.917 382 235.917H642.661ZM384.066 287.983C339.884 287.983 304.066 323.801 304.066 367.983V693.933C304.066 738.115 339.884 773.933 384.066 773.933H640.595C684.778 773.933 720.595 738.115 720.595 693.933V367.983C720.595 323.801 684.778 287.983 640.595 287.983H384.066Z" fill="white"/>
<path d="M642.661 235.917V218.917V218.917V235.917ZM772.661 365.917H789.661V365.917L772.661 365.917ZM642.661 825.999V842.999V842.999V825.999ZM382 825.999V842.999V842.999V825.999ZM252 365.917L235 365.917V365.917H252ZM642.661 235.917V252.917C705.069 252.917 755.661 303.509 755.661 365.917L772.661 365.917L789.661 365.917C789.661 284.731 723.847 218.917 642.661 218.917V235.917ZM772.661 365.917H755.661V695.999H772.661H789.661V365.917H772.661ZM772.661 695.999H755.661C755.661 758.407 705.069 808.999 642.661 808.999V825.999V842.999C723.847 842.999 789.661 777.185 789.661 695.999H772.661ZM642.661 825.999V808.999H382V825.999V842.999H642.661V825.999ZM382 825.999V808.999C319.592 808.999 269 758.407 269 695.999H252H235C235 777.185 300.814 842.999 382 842.999V825.999ZM252 695.999H269V365.917H252H235V695.999H252ZM252 365.917L269 365.917C269 303.509 319.592 252.917 382 252.917V235.917V218.917C300.814 218.917 235 284.731 235 365.917L252 365.917ZM382 235.917V252.917H642.661V235.917V218.917H382V235.917ZM384.066 287.983V270.983C330.495 270.983 287.066 314.412 287.066 367.983H304.066H321.066C321.066 333.189 349.272 304.983 384.066 304.983V287.983ZM304.066 367.983H287.066V693.933H304.066H321.066V367.983H304.066ZM304.066 693.933H287.066C287.066 747.504 330.495 790.933 384.066 790.933V773.933V756.933C349.272 756.933 321.066 728.727 321.066 693.933H304.066ZM384.066 773.933V790.933H640.595V773.933V756.933H384.066V773.933ZM640.595 773.933V790.933C694.166 790.933 737.595 747.504 737.595 693.933H720.595H703.595C703.595 728.727 675.389 756.933 640.595 756.933V773.933ZM720.595 693.933H737.595V367.983H720.595H703.595V693.933H720.595ZM720.595 367.983H737.595C737.595 314.412 694.166 270.983 640.595 270.983V287.983V304.983C675.389 304.983 703.595 333.189 703.595 367.983H720.595ZM640.595 287.983V270.983H384.066V287.983V304.983H640.595V287.983Z" fill="white" mask="url(#path-1-outside-1_4007_2)"/>
<path d="M520.148 426.826C533.403 426.826 544.148 437.571 544.148 450.826V499.141H592.463C605.718 499.141 616.463 509.886 616.463 523.141V538.776C616.463 552.031 605.718 562.776 592.463 562.776H544.148V611.091C544.148 624.345 533.403 635.091 520.148 635.091H504.513C491.258 635.091 480.513 624.345 480.513 611.091V562.776H432.198C418.943 562.776 408.198 552.031 408.198 538.776V523.141C408.198 509.886 418.943 499.141 432.198 499.141H480.513V450.826C480.513 437.571 491.258 426.826 504.513 426.826H520.148Z" fill="white"/>
<path d="M512.331 126C541.086 126 564.396 149.311 564.396 178.066C564.396 206.821 541.086 230.132 512.331 230.132C483.576 230.132 460.265 206.822 460.265 178.066C460.265 149.311 483.576 126 512.331 126ZM512.33 154.925C499.55 154.925 489.19 165.285 489.189 178.065C489.189 190.846 499.55 201.206 512.33 201.206C525.11 201.206 535.471 190.846 535.471 178.065C535.471 165.285 525.11 154.925 512.33 154.925Z" fill="white"/>
<rect x="376.38" y="186.744" width="271.901" height="104.132" rx="40" fill="white"/>
</svg>
