<svg width="1477" height="1477" viewBox="0 0 1477 1477" fill="none" xmlns="http://www.w3.org/2000/svg">
<rect width="1477" height="1477" fill="#0A7B6C"/>
<svg x="110" y="110" width="1257" height="1257" viewBox="0 0 1477 1477" fill="none">
<mask id="m1" maskUnits="userSpaceOnUse" x="273" y="303" width="934" height="1054" fill="black">
<rect fill="white" x="273" y="303" width="934" height="1054"/>
<path d="M1060 320C1131.8 320 1190 378.203 1190 450V1210C1190 1281.8 1131.8 1340 1060 1340H420C348.203 1340 290 1281.8 290 1210V450C290 378.203 348.203 320 420 320H1060ZM460 410C415.817 410 380 445.817 380 490V1170C380 1214.18 415.817 1250 460 1250H1020C1064.18 1250 1100 1214.18 1100 1170V490C1100 445.817 1064.18 410 1020 410H460Z"/>
</mask>
<path d="M1060 320C1131.8 320 1190 378.203 1190 450V1210C1190 1281.8 1131.8 1340 1060 1340H420C348.203 1340 290 1281.8 290 1210V450C290 378.203 348.203 320 420 320H1060ZM460 410C415.817 410 380 445.817 380 490V1170C380 1214.18 415.817 1250 460 1250H1020C1064.18 1250 1100 1214.18 1100 1170V490C1100 445.817 1064.18 410 1020 410H460Z" fill="#FFFFFF"/>
<path d="M420 1340V1357V1357V1340ZM290 450H273V450H290ZM1060 320V337C1122.41 337 1173 387.592 1173 450H1190H1207C1207 368.814 1141.19 303 1060 303V320ZM1190 450H1173V1210H1190H1207V450H1190ZM1190 1210H1173C1173 1272.41 1122.41 1323 1060 1323V1340V1357C1141.19 1357 1207 1291.19 1207 1210H1190ZM1060 1340V1323H420V1340V1357H1060V1340ZM420 1340V1323C357.592 1323 307 1272.41 307 1210H290H273C273 1291.19 338.814 1357 420 1357V1340ZM290 1210H307V450H290H273V1210H290ZM290 450H307C307 387.592 357.592 337 420 337V320V303C338.814 303 273 368.814 273 450H290ZM420 320V337H1060V320V303H420V320ZM460 410V393C406.428 393 363 436.428 363 490H380H397C397 455.206 425.206 427 460 427V410ZM380 490H363V1170H380H397V490H380ZM380 1170H363C363 1223.57 406.428 1267 460 1267V1250V1233C425.206 1233 397 1204.79 397 1170H380ZM460 1250V1267H1020V1250V1233H460V1250ZM1020 1250V1267C1073.57 1267 1117 1223.57 1117 1170H1100H1083C1083 1204.79 1054.79 1233 1020 1233V1250ZM1100 1170H1117V490H1100H1083V1170H1100ZM1100 490H1117C1117 436.428 1073.57 393 1020 393V410V427C1054.79 427 1083 455.206 1083 490H1100ZM1020 410V393H460V410V427H1020V410Z" fill="#FFFFFF" mask="url(#m1)"/>
<path d="M771 650C784.255 650 795 660.745 795 674V775H896C909.255 775 920 785.745 920 799V861C920 874.255 909.255 885 896 885H795V986C795 999.255 784.255 1010 771 1010H709C695.745 1010 685 999.255 685 986V885H584C570.745 885 560 874.255 560 861V799C560 785.745 570.745 775 584 775H685V674C685 660.745 695.745 650 709 650H771Z" fill="#0A7B6C"/>
<path d="M740 130C789.706 130 830 170.294 830 220C830 269.706 789.706 310 740 310C690.294 310 650 269.706 650 220C650 170.294 690.294 130 740 130ZM740 180C717.909 180 700 197.909 700 220C700 242.091 717.909 260 740 260C762.091 260 780 242.091 780 220C780 197.909 762.091 180 740 180Z" fill="#0C4F5C"/>
<rect x="505" y="235" width="470" height="180" rx="40" fill="#0C4F5C"/>
</svg>
</svg>
